<svg xmlns="http://www.w3.org/2000/svg" viewBox="0 0 64 64" x="0px" y="0px"><title>a</title><g data-name="01 Iceberg"><path d="M38.829,15.105,38.1,16.553a1,1,0,0,0,.1,1.047l3,4a1,1,0,1,0,1.6-1.2l-2.629-3.5.724-1.448a1,1,0,0,0-.1-1.047l-3-4a1,1,0,0,0-1.6,1.2Z"/><path d="M60,24H54.518L42.963,7.63a2.022,2.022,0,0,0-.74-.637L34.447,3.105a1,1,0,0,0-1.3.369L30.265,8.13l-6.1-2.706a2,2,0,0,0-2.462.7L9.473,24H4a1,1,0,0,0,0,2H9.2L11.8,37.231a2,2,0,0,0,2.435,1.492l2.807-.7,2.8,10.5A2,2,0,0,0,21.769,50H24.8l2.107,6.852a2,2,0,0,0,1.124,1.25l6.574,2.817a1,1,0,0,0,1.226-.364l5.908-8.862a2.015,2.015,0,0,0,.269-.595L45.27,38.854l3.441-.765a2.006,2.006,0,0,0,1.412-1.183L54.667,26H60a1,1,0,0,0,0-2ZM34.37,5.3l6.958,3.479L52.07,24H35.46l-5.505-6.423a2,2,0,0,0-.97-.621l-1.557-.445L31.51,9.927l.006-.015ZM22.427,17.162l3.178.909h0l2.831.808L32.826,24H17.869Zm.928-9.91,5.847,2.6L25.428,15.94l-2.451-.7a2,2,0,0,0-2.214.814L15.465,24H11.9ZM48.276,36.137l-4.033.9h0l-4.459.99A1,1,0,0,0,40,40a1.018,1.018,0,0,0,.218-.024l2.853-.633-2.994,11.24-5.447,8.17-5.809-2.49L26.894,50h.311a1.99,1.99,0,0,0,1.948-1.55l.917-3.972a1,1,0,1,0-1.949-.45L27.205,48H21.769L18.978,37.534l1.7-.424a2,2,0,0,0,1.439-1.391l1.841-6.444a1,1,0,0,0-1.922-.55L20.2,35.169l-2.688.671h0l-3.761.942L11.257,26H52.5Z"/><path d="M36.275,44.039a1,1,0,0,0-1.236.686l-2,7a1,1,0,0,0,.686,1.236A.977.977,0,0,0,34,53a1,1,0,0,0,.961-.725l2-7A1,1,0,0,0,36.275,44.039Z"/><path d="M27.243,35.03a1,1,0,0,0-1.213.727l-1,4a1,1,0,0,0,.727,1.213A.976.976,0,0,0,26,41a1,1,0,0,0,.969-.757l1-4A1,1,0,0,0,27.243,35.03Z"/><path d="M34.03,33.243A1,1,0,0,0,35,34a.976.976,0,0,0,.244-.03l8-2a1,1,0,0,0,.652-.523l1-2a1,1,0,0,0-1.79-.894l-.794,1.589L34.757,32.03A1,1,0,0,0,34.03,33.243Z"/></g></svg>